<svg xmlns="http://www.w3.org/2000/svg" viewBox="0 0 32 32">
  <rect width="32" height="32" rx="8" fill="#137B73"/>
  <path fill="#FBF3E3" d="M11.2 13.6c1.1 0 2-1.1 2-2.5s-.9-2.5-2-2.5-2 1.1-2 2.5.9 2.5 2 2.5Zm9.6 0c1.1 0 2-1.1 2-2.5s-.9-2.5-2-2.5-2 1.1-2 2.5.9 2.5 2 2.5ZM7.6 18.4c.9 0 1.7-1 1.7-2.2S8.5 14 7.6 14s-1.7 1-1.7 2.2.8 2.2 1.7 2.2Zm16.8 0c.9 0 1.7-1 1.7-2.2S25.3 14 24.4 14s-1.7 1-1.7 2.2.8 2.2 1.7 2.2ZM16 15.2c-2.9 0-6 2.7-6 5.7 0 1.7 1.2 2.7 2.8 2.7.9 0 1.6-.3 2.4-.6.4-.2.8-.3 1.1-.3.3 0 .7.1 1.1.3.8.3 1.5.6 2.4.6 1.6 0 2.8-1 2.8-2.7 0-3-3.1-5.7-6-5.7Z"/>
</svg>
